{"title":"Repo Men TS XViD - IMAGiNE","uid":5457524,"size":1507242188,"categoryP":"video","categoryS":"movies","magnet":"?xt=urn:btih:dec2e3096f092b4f0b2026148360d23daece7196&amp;dn=Repo+Men+TS+XViD+-+IMAGiNE&amp;tr=udp%3A%2F%2Ftracker.openbittorrent.com%3A80&amp;tr=udp%3A%2F%2Fopen.demonii.com%3A1337&amp;tr=udp%3A%2F%2Ftracker.coppersurfer.tk%3A6969&amp;tr=udp%3A%2F%2Fexodus.desync.com%3A6969","seeders":3,"leechers":0,"uploader":"IwannaFan2","files":3,"time":1269369152,"description":"Filename:\nRepo Men TS XViD - IMAGiNE\n &lt;a href=&quot;\nhttp://www.imdb.com/title/tt1053424/&quot; rel=&quot;nofollow&quot; target=&quot;_NEW&quot;&gt;\nhttp://www.imdb.com/title/tt1053424/&lt;/a&gt;\n\n\nDETAILS:\n\nVideo\nFormat                           : MPEG-4 Visual\nFormat profile                   : Streaming Video@L1\nFormat settings, BVOP            : Yes\nFormat settings, QPel            : No\nFormat settings, GMC             : No warppoints\nFormat settings, Matrix          : Default\nMuxing mode                      : Packed bitstream\nCodec ID                         : XVID\nCodec ID/Hint                    : XviD\nDuration                         : 1h 45mn\nBit rate                         : 1 730 Kbps\nWidth                            : 720 pixels\nHeight                           : 304 pixels\nDisplay aspect ratio             : 2.35\nFrame rate                       : 23.976 fps\nResolution                       : 24 bits\nColorimetry                      : 4:2:0\nScan type                        : Progressive\nBits/(Pixel*Frame)               : 0.330\nStream size                      : 1.27 GiB (93%)\nWriting library                  : XviD 50\n\nAudio\nFormat                           : MPEG Audio\nFormat version                   : Version 1\nFormat profile                   : Layer 3\nCodec ID                         : 55\nCodec ID/Hint                    : MP3\nDuration                         : 1h 45mn\nBit rate mode                    : Constant\nBit rate                         : 128 Kbps\nChannel(s)                       : 2 channels\nSampling rate                    : 48.0 KHz\nResolution                       : 16 bits\nStream size                      : 96.3 MiB (7%)\nAlignment                        : Split accross interleaves\nInterleave, duration             : 42 ms (1.00 video frame)\nInterleave, preload duration     : 500 ms\n\n\nNOTES:\n\nIMAGiNE bringing you another release.....Repo Men\nHere we go again we another decent TS,got to be honest and say it is not the best we've done.\nThe movie was pretty much a dark film which made it harder to do and also harder to sync.\nSo being a dark film we opted to leave the contrast off so you can see it better...so the black does look more like\na dark grey now.\nAudio is pretty nice so no real problems theres.","torrent":{"xt":"urn:btih:dec2e3096f092b4f0b2026148360d23daece7196","amp;dn":"Repo+Men+TS+XViD+-+IMAGiNE","amp;tr":["udp%3A%2F%2Ftracker.openbittorrent.com%3A80","udp%3A%2F%2Fopen.demonii.com%3A1337","udp%3A%2F%2Ftracker.coppersurfer.tk%3A6969","udp%3A%2F%2Fexodus.desync.com%3A6969"],"infoHash":"dec2e3096f092b4f0b2026148360d23daece7196","infoHashBuffer":{"type":"Buffer","data":[222,194,227,9,111,9,43,79,11,32,38,20,131,96,210,61,174,206,113,150]},"announce":[],"urlList":[]}}